<?xml version="1.0" encoding="utf-8"?>
<!-- Generator: Adobe Illustrator 18.0.0, SVG Export Plug-In . SVG Version: 6.00 Build 0)  -->
<!DOCTYPE svg PUBLIC "-//W3C//DTD SVG 1.1//EN" "http://www.w3.org/Graphics/SVG/1.1/DTD/svg11.dtd">
<svg version="1.1" id="图层_1" xmlns="http://www.w3.org/2000/svg" xmlns:xlink="http://www.w3.org/1999/xlink" x="0px" y="0px"
	 width="78px" height="78px" viewBox="0 0 78 78" enable-background="new 0 0 78 78" xml:space="preserve">
<g>
	<path fill="#FFC800" d="M66.6,11.4c-15.2-15.2-39.9-15.2-55.2,0C3.9,19,0.1,28.8,0,38.7c-0.1,10.1,3.7,20.2,11.4,27.8
		c15.2,15.2,39.9,15.2,55.2,0c7.7-7.7,11.5-17.8,11.4-27.8C77.9,28.8,74.1,19,66.6,11.4z"/>
	<g>
		<defs>
			<path id="SVGID_1_" d="M66.6,11.4c-15.2-15.2-39.9-15.2-55.2,0C3.9,19,0.1,28.8,0,38.7c-0.1,10.1,3.7,20.2,11.4,27.8
				c15.2,15.2,39.9,15.2,55.2,0c7.7-7.7,11.5-17.8,11.4-27.8C77.9,28.8,74.1,19,66.6,11.4z"/>
		</defs>
		<clipPath id="SVGID_2_">
			<use xlink:href="#SVGID_1_"  overflow="visible"/>
		</clipPath>
		<g clip-path="url(#SVGID_2_)">
			<line fill="#FFF9CF" stroke="#FCD001" stroke-width="9.75" stroke-miterlimit="10" x1="89" y1="-60.8" x2="-61.6" y2="89.8"/>
			
				<line fill="none" stroke="#FCD001" stroke-width="31.6875" stroke-miterlimit="10" x1="120.5" y1="-44.4" x2="-30.1" y2="106.2"/>
			<line fill="none" stroke="#FCD001" stroke-width="9.75" stroke-miterlimit="10" x1="148.6" y1="-20.8" x2="-1.9" y2="129.7"/>
		</g>
	</g>
</g>
</svg>
