<?xml version="1.0" encoding="UTF-8" standalone="no"?>
<svg width="15px" height="12px" viewBox="0 0 15 12" version="1.1" xmlns="http://www.w3.org/2000/svg" xmlns:xlink="http://www.w3.org/1999/xlink">
    <!-- Generator: Sketch 41.2 (35397) - http://www.bohemiancoding.com/sketch -->
    <title>icon-上传</title>
    <desc>Created with Sketch.</desc>
    <defs></defs>
    <g id="灵件" stroke="none" stroke-width="1" fill="none" fill-rule="evenodd">
        <g id="主界面－选择颜色" transform="translate(-1191.000000, -25.000000)" fill="#FFFFFF">
            <path d="M1204.62393,26.3834742 L1191.75907,26.3834742 C1191.44533,26.3834742 1191.1915,26.074114 1191.1915,25.6917371 C1191.1915,25.3093602 1191.44533,25 1191.75907,25 L1204.62393,25 C1204.93767,25 1205.1915,25.3093602 1205.1915,25.6917371 C1205.1915,26.074114 1204.93767,26.3834742 1204.62393,26.3834742 L1204.62393,26.3834742 Z M1195.8982,32.8518525 L1197.50863,34.4851206 L1197.50863,29.3661735 C1197.50863,28.9837966 1197.81403,28.6744364 1198.1915,28.6744364 C1198.56898,28.6744364 1198.87437,28.9837966 1198.87437,29.3661735 L1198.87437,34.4851206 L1200.4848,32.853774 C1200.61758,32.7192695 1200.79209,32.6520173 1200.9685,32.6520173 C1201.14491,32.6520173 1201.31752,32.7192695 1201.4522,32.853774 C1201.71966,33.1247043 1201.71966,33.5628045 1201.4522,33.8318134 L1198.6752,36.6429561 C1198.40774,36.9138864 1197.97526,36.9138864 1197.7097,36.6429561 L1194.9327,33.8318134 C1194.66524,33.560883 1194.66524,33.1227828 1194.9327,32.853774 C1195.06548,32.717348 1195.23999,32.6500958 1195.4145,32.6500958 C1195.58901,32.6500958 1195.76352,32.717348 1195.8982,32.8518525 Z" id="icon-上传" transform="translate(1198.191502, 30.923077) scale(1, -1) translate(-1198.191502, -30.923077) "></path>
        </g>
    </g>
</svg>