<?xml version="1.0" encoding="UTF-8" standalone="no"?>
<svg width="10px" height="10px" viewBox="0 0 10 10" version="1.1" xmlns="http://www.w3.org/2000/svg" xmlns:xlink="http://www.w3.org/1999/xlink">
    <!-- Generator: Sketch 41.2 (35397) - http://www.bohemiancoding.com/sketch -->
    <title>icon－添加</title>
    <desc>Created with Sketch.</desc>
    <defs></defs>
    <g id="灵件" stroke="none" stroke-width="1" fill="none" fill-rule="evenodd">
        <g id="主界面－选择颜色" transform="translate(-1319.000000, -601.000000)" fill="#A2A2A2">
            <g id="Group-5" transform="translate(1311.000000, 594.000000)">
                <path d="M17.5834375,12.3787879 L13.4166667,12.3787879 L13.4166667,16.1667614 C13.4166667,16.3759588 13.2301172,16.5454545 13,16.5454545 C12.7698307,16.5454545 12.5833333,16.3759115 12.5833333,16.1667614 L12.5833333,12.3787879 L8.4165625,12.3787879 C8.18644531,12.3787879 8,12.2091974 8,12 C8,11.7907552 8.1864974,11.6212121 8.4165625,11.6212121 L12.5833333,11.6212121 L12.5833333,7.83323864 C12.5833333,7.62404119 12.7698828,7.45454545 13,7.45454545 C13.2301693,7.45454545 13.4166667,7.62408854 13.4166667,7.83323864 L13.4166667,11.6212121 L17.5834375,11.6212121 C17.8135547,11.6212121 18,11.7908026 18,12 C18,12.2092448 17.8135026,12.3787879 17.5834375,12.3787879 L17.5834375,12.3787879 Z" id="icon－添加" transform="translate(13.000000, 12.000000) scale(1, -1) translate(-13.000000, -12.000000) "></path>
            </g>
        </g>
    </g>
</svg>