<?xml version="1.0" encoding="UTF-8" standalone="no"?>
<svg width="14px" height="14px" viewBox="0 0 14 14" version="1.1" xmlns="http://www.w3.org/2000/svg" xmlns:xlink="http://www.w3.org/1999/xlink">
    <!-- Generator: Sketch 41.2 (35397) - http://www.bohemiancoding.com/sketch -->
    <title>icon－错误</title>
    <desc>Created with Sketch.</desc>
    <defs></defs>
    <g id="灵件" stroke="none" stroke-width="1" fill="none" fill-rule="evenodd">
        <g id="反馈－上传失败" transform="translate(-55.000000, -963.000000)" fill="#E24217">
            <g id="Group-4" transform="translate(38.000000, 953.000000)">
                <g id="Group-19">
                    <g id="Group-18">
                        <g id="消息提示Message-浮出主动消失型消息提醒-红色icon">
                            <path d="M24,10 C20.1335937,10 17,13.1335937 17,17 C17,20.8664062 20.1335937,24 24,24 C27.8664062,24 31,20.8664062 31,17 C31,13.1335938 27.8664062,10 24,10 L24,10 Z M27.2949219,19.6154297 C27.4671875,19.7849609 27.4699219,20.0611328 27.3017578,20.2347656 L27.3017578,20.2347656 C27.1322266,20.4070313 26.8560547,20.4097656 26.6824219,20.2416016 L24,17.6125 L21.3175781,20.2402344 C21.1453125,20.4097656 20.8677734,20.4070313 20.6982422,20.2333984 L20.6982422,20.2333984 C20.5287109,20.0611328 20.5314453,19.7835938 20.7050781,19.6140625 L23.3751953,17 L20.7050781,14.3845703 C20.5328125,14.2150391 20.5300781,13.9388672 20.6982422,13.7652344 L20.6982422,13.7652344 C20.8677734,13.5929688 21.1439453,13.5902344 21.3175781,13.7583984 L24,16.3875 L26.6824219,13.7597656 C26.8546875,13.5902344 27.1322266,13.5929688 27.3017578,13.7666016 L27.3017578,13.7666016 C27.4712891,13.9388672 27.4685547,14.2164063 27.2949219,14.3859375 L24.6248047,17 L27.2949219,19.6154297 L27.2949219,19.6154297 Z" id="icon－错误"></path>
                        </g>
                    </g>
                </g>
            </g>
        </g>
    </g>
</svg>