<?xml version="1.0" encoding="UTF-8" standalone="no"?>
<svg width="17px" height="17px" viewBox="0 0 17 17" version="1.1" xmlns="http://www.w3.org/2000/svg" xmlns:xlink="http://www.w3.org/1999/xlink">
    <!-- Generator: Sketch 41.2 (35397) - http://www.bohemiancoding.com/sketch -->
    <title>icon－删除</title>
    <desc>Created with Sketch.</desc>
    <defs></defs>
    <g id="灵件" stroke="none" stroke-width="1" fill="none" fill-rule="evenodd">
        <g id="主界面－选择颜色" transform="translate(-411.000000, -529.000000)" fill="#ACACAC">
            <path d="M413.214597,529.213166 C413.181264,529.24191 413.147931,529.277839 413.114597,529.313768 C413.150961,529.277839 413.181264,529.24191 413.214597,529.213166 L413.214597,529.213166 Z M413.03113,529.2912 C412.997039,529.323537 412.962949,529.355873 412.93113,529.391802 C412.962949,529.355873 412.997039,529.323537 413.03113,529.2912 L413.03113,529.2912 Z M427.801402,543.362069 C427.672786,543.491491 427.485536,543.563815 427.303961,543.563815 L423.812417,543.563815 L423.812417,544.658195 C423.812417,545.398567 423.214731,546 422.478972,546 L416.519137,546 C415.783378,546 415.185692,545.398567 415.185692,544.658195 L415.185692,543.563815 L411.677125,543.563815 C411.304517,543.563815 411,543.259292 411,542.882445 C411,542.505598 411.302626,542.201075 411.677125,542.201075 L412.274811,542.201075 L412.274811,530.341805 C412.274811,529.601433 412.872497,529 413.608255,529 L425.580886,529 C426.316644,529 426.91433,529.601433 426.91433,530.341805 L426.91433,542.201075 L427.303961,542.201075 C427.676569,542.201075 428,542.505598 428,542.882445 C428,543.063256 427.930018,543.232647 427.801402,543.362069 L427.801402,543.362069 Z M416.517245,544.654389 L422.473298,544.654389 L422.473298,543.552396 L416.517245,543.552396 L416.517245,544.654389 L416.517245,544.654389 Z M425.578994,530.343708 L413.608255,530.343708 L413.608255,542.201075 L415.333222,542.201075 L425.578994,542.201075 L425.578994,530.343708 L425.578994,530.343708 Z M419.490543,539.917152 C419.114152,539.917152 418.809635,539.610725 418.809635,539.231975 L418.809635,532.875056 C418.809635,532.496305 419.114152,532.189879 419.490543,532.189879 C419.866934,532.189879 420.171451,532.496305 420.171451,532.875056 L420.171451,539.231975 C420.171451,539.610725 419.866934,539.917152 419.490543,539.917152 L419.490543,539.917152 Z M415.802292,539.917152 C415.425901,539.917152 415.121384,539.610725 415.121384,539.231975 L415.121384,532.875056 C415.121384,532.496305 415.425901,532.189879 415.802292,532.189879 C416.178683,532.189879 416.4832,532.496305 416.4832,532.875056 L416.4832,539.231975 C416.4832,539.610725 416.178683,539.917152 415.802292,539.917152 L415.802292,539.917152 Z M423.140966,539.917152 C422.764575,539.917152 422.460058,539.610725 422.460058,539.231975 L422.460058,532.875056 C422.460058,532.496305 422.764575,532.189879 423.140966,532.189879 C423.517356,532.189879 423.821874,532.496305 423.821874,532.875056 L423.821874,539.231975 C423.821874,539.610725 423.517356,539.917152 423.140966,539.917152 L423.140966,539.917152 Z" id="icon－删除" transform="translate(419.500000, 537.500000) scale(1, -1) translate(-419.500000, -537.500000) "></path>
        </g>
    </g>
</svg>