<?xml version="1.0" encoding="UTF-8" standalone="no"?>
<svg width="16px" height="16px" viewBox="0 0 16 16" version="1.1" xmlns="http://www.w3.org/2000/svg" xmlns:xlink="http://www.w3.org/1999/xlink">
    <!-- Generator: Sketch 41.2 (35397) - http://www.bohemiancoding.com/sketch -->
    <title>icon-搜索</title>
    <desc>Created with Sketch.</desc>
    <defs></defs>
    <g id="灵件" stroke="none" stroke-width="1" fill="none" fill-rule="evenodd">
        <g id="主界面－选择颜色" transform="translate(-254.000000, -24.000000)" fill="#CCCCCC">
            <g id="icon-搜索" transform="translate(254.000000, 24.000000)">
                <g id="search">
                    <path d="M15.3051724,1.17586207 L11.7724138,4.70689655 C12.7017241,5.84827586 13.2586207,7.30344828 13.2586207,8.88965517 C13.2586207,12.5517241 10.2913793,15.5189655 6.62931034,15.5189655 C2.96724138,15.5189655 0,12.5517241 0,8.88965517 C0,5.22758621 2.96724138,2.26034483 6.62931034,2.26034483 C8.20862069,2.26034483 9.65862069,2.81206897 10.7965517,3.73448276 L14.3293103,0.201724138 C14.4637931,0.0672413793 14.6396552,0 14.8172414,0 C14.9931034,0 15.1706897,0.0672413793 15.3051724,0.201724138 C15.5741379,0.470689655 15.5741379,0.906896552 15.3051724,1.17586207 L15.3051724,1.17586207 Z M8.72586207,3.92413793 C8.06206897,3.64310345 7.35689655,3.50172414 6.62931034,3.50172414 C5.90172414,3.50172414 5.19655172,3.64482759 4.53275862,3.92413793 C3.89137931,4.19482759 3.31551724,4.58448276 2.81896552,5.07931034 C2.32413793,5.57413793 1.93448276,6.15172414 1.6637931,6.79310345 C1.38275862,7.45689655 1.24137931,8.16206897 1.24137931,8.88965517 C1.24137931,9.61724138 1.38448276,10.3224138 1.6637931,10.9862069 C1.93448276,11.6275862 2.32413793,12.2034483 2.81896552,12.7 C3.3137931,13.1948276 3.89137931,13.5844828 4.53275862,13.8551724 C5.19655172,14.1362069 5.90172414,14.2775862 6.62931034,14.2775862 C7.35689655,14.2775862 8.06206897,14.1344828 8.72586207,13.8551724 C9.36724138,13.5844828 9.94310345,13.1948276 10.4396552,12.7 C10.9344828,12.2051724 11.3241379,11.6293103 11.5948276,10.9862069 C11.8758621,10.3224138 12.0172414,9.61724138 12.0172414,8.88965517 C12.0172414,8.16206897 11.8741379,7.45689655 11.5948276,6.79310345 C11.3241379,6.15172414 10.9344828,5.57586207 10.4396552,5.07931034 C9.94310345,4.58448276 9.36724138,4.19655172 8.72586207,3.92413793 L8.72586207,3.92413793 Z" id="Shape" transform="translate(7.753448, 7.759483) scale(1, -1) translate(-7.753448, -7.759483) "></path>
                </g>
            </g>
        </g>
    </g>
</svg>