<?xml version="1.0" encoding="utf-8"?>
<!-- Generator: Adobe Illustrator 18.0.0, SVG Export Plug-In . SVG Version: 6.00 Build 0)  -->
<!DOCTYPE svg PUBLIC "-//W3C//DTD SVG 1.1//EN" "http://www.w3.org/Graphics/SVG/1.1/DTD/svg11.dtd">
<svg version="1.1" id="Layer_1" xmlns="http://www.w3.org/2000/svg" xmlns:xlink="http://www.w3.org/1999/xlink" x="0px" y="0px"
	 width="96px" height="23.6px" viewBox="-23.4 51 96 23.6" enable-background="new -23.4 51 96 23.6" xml:space="preserve">
<g>
	<path fill="#1797EB" d="M12.8,70.3c0.6,0,1-0.5,1-1s-0.5-1-1-1h-2.8c-0.6,0-1,0.5-1,1s0.5,1,1,1H12.8z"/>
	<path fill="#1797EB" d="M18,69.2c-0.6,0-1.2,0.5-1.2,1.2v1.2c0,0.2-0.2,0.3-0.5,0.3H7.5c-0.8,0-1.4-0.5-1.4-1.2v-1.9
		c0-0.6-0.5-1.2-1.2-1.2c-0.6,0-1.2,0.5-1.2,1.2v1.9c0,1.9,1.7,3.5,3.8,3.5h8.9c1.6,0,2.9-1.2,2.9-2.7v-1.2
		C19.2,69.7,18.7,69.2,18,69.2z"/>
	<path fill="#1797EB" d="M21.7,52.8h-4.5v-0.4c0-0.7-0.6-1.3-1.3-1.3c-0.7,0-1.3,0.6-1.3,1.3v0.4H8.3v-0.4c0-0.7-0.6-1.3-1.3-1.3
		s-1.3,0.6-1.3,1.3v0.4H1.2c-0.6,0-1.1,0.5-1.1,1.1c0,0.6,0.5,1.1,1.1,1.1h20.4c0.6,0,1.1-0.5,1.1-1.1
		C22.8,53.3,22.3,52.8,21.7,52.8z"/>
	<g>
		<path fill="#1797EB" d="M-2.2,66.3h-6.7v-3.9h4.8c0.6,0,1.1-0.5,1.1-1.1c0-0.6-0.5-1.1-1.1-1.1h-4.8v-3.7c0,0,0-0.1,0-0.1h6
			c0.6,0,1.1-0.5,1.1-1.1c0-0.6-0.5-1.1-1.1-1.1h-2.8v-1.6c0-0.7-0.6-1.2-1.2-1.2s-1.2,0.6-1.2,1.2v1.6h-4v-1.6
			c0-0.7-0.6-1.2-1.2-1.2c-0.7,0-1.2,0.6-1.2,1.2v1.6h-2.8c-0.6,0-1.1,0.5-1.1,1.1c0,0.6,0.5,1.1,1.1,1.1h6c0,0,0,0.1,0,0.1v3.7
			h-4.8c-0.6,0-1.1,0.5-1.1,1.1c0,0.6,0.5,1.1,1.1,1.1h4.8v3.9h-6.7c-0.6,0-1.1,0.5-1.1,1.1c0,0.6,0.5,1.1,1.1,1.1h6.7v4.9
			c0,0.7,0.6,1.3,1.3,1.3h0.1c0.7,0,1.3-0.6,1.3-1.3v-4.9h6.7c0.6,0,1.1-0.5,1.1-1.1C-1.1,66.7-1.6,66.3-2.2,66.3z"/>
		<path fill="#1797EB" d="M-21.6,52.8L-21.6,52.8c-0.7,0-1.2,0.5-1.2,1.2v1.4c0,0.7,0.5,1.2,1.2,1.2h0c0.7,0,1.2-0.5,1.2-1.2v-1.4
			C-20.4,53.4-21,52.8-21.6,52.8z"/>
		<path fill="#1797EB" d="M-21.6,58.4L-21.6,58.4c-0.7,0-1.2,0.5-1.2,1.2v1.1c0,0.7,0.5,1.2,1.2,1.2h0c0.7,0,1.2-0.5,1.2-1.2v-1.1
			C-20.4,59-21,58.4-21.6,58.4z"/>
		<path fill="#1797EB" d="M-21.6,63.9c-0.7,0-1.2,0.5-1.2,1.2v3.2c0,1.3-0.2,2.6-0.5,3.8c-0.2,0.6,0.2,1.3,0.9,1.5
			c0.1,0,0.2,0,0.3,0c0.5,0,1-0.4,1.2-0.9c0.4-1.5,0.6-3,0.6-4.5v-3.2C-20.4,64.4-21,63.9-21.6,63.9z"/>
	</g>
	<path fill="#1797EB" d="M1.3,69c-0.6,0-1.1,0.5-1.1,1.1v2c0,0.6,0.5,1.1,1.1,1.1c0.6,0,1.1-0.5,1.1-1.1v-2C2.4,69.5,1.9,69,1.3,69z
		"/>
	<path fill="#1797EB" d="M21.5,69c-0.6,0-1.1,0.5-1.1,1.1v2c0,0.6,0.5,1.1,1.1,1.1c0.6,0,1.1-0.5,1.1-1.1v-2
		C22.6,69.5,22.1,69,21.5,69z"/>
	<path fill="#1797EB" d="M21.4,59.6c0.1-0.7-0.2-1.5-0.7-2c-0.5-0.5-1.2-0.9-1.9-0.9H6.7c0.1-0.4-0.1-0.9-0.5-1.2
		c-0.5-0.4-1.2-0.2-1.6,0.3c0,0-1.4,2.1-3.5,3.8C0.7,60,0.6,60.8,1,61.2c0.2,0.3,0.6,0.4,0.9,0.4c0.3,0,0.5-0.1,0.7-0.3
		c1-0.8,1.8-1.7,2.4-2.4h4.4c-0.3,0.5-0.8,1-1.4,1.6l-2.6-0.4c-0.6-0.1-1.1,0.3-1.2,0.9c-0.1,0.6,0.3,1.1,0.9,1.2L6,62.4
		c-1,0.8-2.3,1.6-3.9,2.3c-0.6,0.3-0.8,0.9-0.5,1.5c0.2,0.4,0.6,0.6,1,0.6c0.2,0,0.3,0,0.5-0.1c2.6-1.2,4.5-2.6,5.9-3.9l2.8,0.4
		c-0.7,0.7-1.5,1.4-2.4,2c-0.5,0.3-0.7,1-0.3,1.5c0.2,0.3,0.6,0.5,0.9,0.5c0.2,0,0.4-0.1,0.6-0.2c1.6-1,2.8-2.2,3.8-3.4l2.2,0.3
		c0.1,0,0.1,0,0.2,0c0.5,0,1-0.4,1-0.9c0.1-0.6-0.3-1.1-0.9-1.2l-1.1-0.2c0.8-1.3,1.3-2.3,1.5-2.8h1.6c0.1,0,0.2,0.1,0.2,0.1
		c0,0,0.1,0.1,0.1,0.2l-0.5,4.3c-0.1,1.2-1.1,2.1-2.3,2.1c-0.6,0-1.1,0.5-1.1,1.1c0,0.6,0.5,1.1,1.1,1.1c2.4,0,4.3-1.8,4.6-4.1
		L21.4,59.6z M13.3,61.4L10.7,61c0.7-0.9,1.1-1.6,1.3-2h2.8C14.5,59.6,14,60.5,13.3,61.4z"/>
	<path fill="#3C3C3C" d="M46.4,57.4h0.9c0.7,0,1.2-0.5,1.2-1.2S48,55,47.3,55H41c0.4-1.5,0.7-2.5,0.7-2.6c0.1-0.6-0.2-1.2-0.9-1.4
		c-0.6-0.1-1.2,0.2-1.4,0.9c0,0.1-1.2,5.1-3.1,9.2c-0.3,0.6,0,1.2,0.6,1.5c0.2,0.1,0.3,0.1,0.5,0.1c0.4,0,0.8-0.2,1-0.7
		c0.1-0.2,0.2-0.4,0.3-0.6c0.4,1.5,0.9,3.2,1.7,4.8c0.2,0.4,0.4,0.7,0.6,1.1c-1.5,2.7-3.4,4.5-3.4,4.5c-0.5,0.5-0.5,1.2,0,1.7
		c0.2,0.2,0.5,0.3,0.8,0.3c0.3,0,0.6-0.1,0.8-0.3c0.1-0.1,1.6-1.6,3.1-3.9c1.2,1.8,2.6,3.3,4.3,4.5c0.2,0.2,0.5,0.2,0.7,0.2
		c0.4,0,0.7-0.2,0.9-0.5c0.4-0.5,0.3-1.3-0.2-1.7c-1.7-1.3-3.1-2.9-4.4-5c0.4-0.7,0.7-1.5,1-2.4C45.8,61.7,46.3,58.7,46.4,57.4z
		 M40.4,57.7c0-0.1-0.1-0.2-0.1-0.3c0,0,0,0,0,0h3.7c-0.2,1.3-0.7,4-1.6,6.7c-0.1,0.2-0.1,0.3-0.2,0.5
		C40.9,61.5,40.4,57.8,40.4,57.7z"/>
	<path fill="#3C3C3C" d="M26.6,57.3c0,0.4-0.2,2.1-0.5,3.8c-0.1,0.6,0.3,1.1,0.8,1.2c0.1,0,0.1,0,0.2,0c0.5,0,0.9-0.4,1-0.9
		c0.4-2.1,0.5-4,0.5-4.1c0,0,0,0,0,0H30v4.3c0,0.6,0.5,1.1,1.1,1.1c0.6,0,1.1-0.5,1.1-1.1v-4.3h1.3c0,0,0,0,0,0c0,0.1,0.1,2,0.5,4.1
		c0.1,0.5,0.5,0.9,1,0.9c0.1,0,0.1,0,0.2,0c0.6-0.1,0.9-0.6,0.8-1.2c-0.3-1.7-0.4-3.4-0.5-3.8h0.6c0.6,0,1.1-0.5,1.1-1.1v0
		c0-0.6-0.5-1.1-1.1-1.1h-4v-2.9c0-0.6-0.5-1.1-1.1-1.1c-0.6,0-1.1,0.5-1.1,1.1V55h-4c-0.6,0-1.1,0.5-1.1,1.1v0
		c0,0.6,0.5,1.1,1.1,1.1H26.6z"/>
	<path fill="#3C3C3C" d="M27.6,54.3c0.6,0,1.1-0.5,1.1-1.1v-0.7c0-0.6-0.5-1.1-1.1-1.1c-0.6,0-1.1,0.5-1.1,1.1v0.7
		C26.5,53.8,27,54.3,27.6,54.3z"/>
	<path fill="#3C3C3C" d="M34.6,54.3c0.6,0,1.1-0.5,1.1-1.1v-0.7c0-0.6-0.5-1.1-1.1-1.1c-0.6,0-1.1,0.5-1.1,1.1v0.7
		C33.5,53.8,34,54.3,34.6,54.3z"/>
	<g>
		<path fill="#3C3C3C" d="M53.6,54h0.6c0.7,0,1.2-0.5,1.2-1.2c0-0.7-0.5-1.2-1.2-1.2h-0.6c-0.7,0-1.2,0.5-1.2,1.2v0
			C52.4,53.4,52.9,54,53.6,54z"/>
		<path fill="#3C3C3C" d="M57.6,54h2.7c0.7,0,1.2-0.5,1.2-1.2s-0.5-1.2-1.2-1.2h-2.7c-0.7,0-1.2,0.5-1.2,1.2S57,54,57.6,54z"/>
		<path fill="#3C3C3C" d="M64.1,54h5.4c0.7,0,1.2-0.5,1.2-1.2s-0.5-1.2-1.2-1.2h-5.4c-0.7,0-1.2,0.5-1.2,1.2v0
			C62.9,53.4,63.4,54,64.1,54z"/>
		<path fill="#3C3C3C" d="M71.4,65h-7.3l4.1-3.3c0.4-0.3,0.6-0.9,0.4-1.3c-0.2-0.5-0.6-0.8-1.1-0.8H55.8c-0.7,0-1.2,0.5-1.2,1.2
			c0,0.7,0.5,1.2,1.2,1.2H64l-1.4,1.1c-1,0.8-1.5,1.7-1.6,1.9h-9.3c-0.6,0-1.1,0.5-1.1,1.1s0.5,1.1,1.1,1.1h9.2v1
			c0,1.8-0.4,3.7-3,3.7c-0.7,0-1.2,0.5-1.2,1.2s0.5,1.2,1.2,1.2c3.5,0,5.5-2.2,5.5-6.1v-1h8.1c0.6,0,1.1-0.5,1.1-1.1S72,65,71.4,65z
			"/>
		<path fill="#3C3C3C" d="M72,56.1c-0.4-0.4-1-0.7-1.6-0.7h-1.1H53.8h-1.1c-0.6,0-1.2,0.3-1.6,0.7c-0.4,0.4-0.6,1-0.6,1.6v1.7
			c0,0.7,0.5,1.2,1.2,1.2c0.7,0,1.2-0.5,1.2-1.2v-1.6h1h15.4h1v1.6c0,0.7,0.5,1.2,1.2,1.2c0.7,0,1.2-0.5,1.2-1.2v-1.7
			C72.6,57.1,72.4,56.5,72,56.1z"/>
	</g>
	<path fill="#3C3C3C" d="M36.4,64.8c-0.2-0.3-0.5-0.4-0.9-0.4h-4.4c0.1-0.6-0.1-1.2-0.6-1.4l0,0c-0.6-0.3-1.3-0.1-1.6,0.5L28.8,64
		c0,0.1-0.1,0.2-0.1,0.3h-2.3c-0.6,0-1.1,0.5-1.1,1.1s0.5,1.1,1.1,1.1h1c-0.2,0.4-0.4,0.7-0.7,1.1c-0.2,0.3-0.3,0.7-0.2,1.1
		c0.1,0.3,0.3,0.9,2.9,2.1c-0.9,0.4-2,0.8-3.3,1.1c-0.6,0.1-1,0.7-0.9,1.3c0.1,0.5,0.6,0.9,1.1,0.9c0.1,0,0.2,0,0.2,0
		c2.3-0.5,4-1.2,5.4-2.1c0.9,0.4,1.9,0.8,3.1,1.2c0.1,0,0.3,0.1,0.4,0.1c0.5,0,0.9-0.3,1-0.7c0.2-0.6-0.1-1.2-0.7-1.4
		c-0.6-0.2-1.3-0.5-1.9-0.7c2.2-2.2,2.7-4.6,2.7-4.7C36.7,65.3,36.7,65,36.4,64.8z M31.7,69.5c-1.1-0.5-2.1-0.9-2.7-1.3
		c0.4-0.7,0.7-1.3,0.9-1.6H34C33.6,67.4,32.9,68.5,31.7,69.5z"/>
</g>
</svg>
